Land_normalized_pl07_filtered_grf
version=1
nRows=15
nColumns=37
inDegrees=yes
endheader
time		1_ground_force_vx		1_ground_force_vy		1_ground_force_vz		1_ground_force_px		1_ground_force_py		1_ground_force_pz		1_ground_torque_x		1_ground_torque_y		1_ground_torque_z		2_ground_force_vx		2_ground_force_vy		2_ground_force_vz		2_ground_force_px		2_ground_force_py		2_ground_force_pz		2_ground_torque_x		2_ground_torque_y		2_ground_torque_z		3_ground_force_vx		3_ground_force_vy		3_ground_force_vz		3_ground_force_px		3_ground_force_py		3_ground_force_pz		3_ground_torque_x		3_ground_torque_y		3_ground_torque_z		4_ground_force_vx		4_ground_force_vy		4_ground_force_vz		4_ground_force_px		4_ground_force_py		4_ground_force_pz		4_ground_torque_x		4_ground_torque_y		4_ground_torque_z		
0.800333		-54.459651		951.947628		345.736763		0.135555		0.000000		0.187027		-1.266994		22.147091		8.043607		70.046092		1066.606580		293.584728		-0.204386		0.000000		0.233472		2.648385		40.326306		11.099920		0.123655		-0.181260		-1.678960		0.413101		1.262844		1.874169		0.027870		-0.009165		0.027327		-1.091032		-2.207220		-2.854924		-0.353491		1.256143		1.901313		0.024139		-0.019169		0.048775		
0.803162		-58.147110		951.158063		332.939482		0.136091		0.000000		0.186847		-1.331777		21.785045		7.625578		77.721413		1060.157371		296.833672		-0.205410		0.000000		0.230392		3.063291		41.783439		11.699006		0.112802		-0.172536		-1.722865		0.413109		1.262835		1.874101		0.028590		-0.007280		0.028291		-1.202098		-2.227989		-2.770146		-0.353472		1.256124		1.901226		0.024094		-0.022746		0.050030		
0.805990		-61.352357		955.087949		319.646322		0.136692		0.000000		0.186941		-1.388487		21.614930		7.234030		85.885380		1052.398282		298.885722		-0.206598		0.000000		0.227305		3.524975		43.193246		12.267075		0.071796		-0.167161		-1.741705		0.413119		1.262826		1.874032		0.029448		-0.005269		0.029127		-1.325100		-2.240183		-2.678045		-0.353463		1.256097		1.901150		0.023962		-0.026491		0.050881		
0.808818		-63.911991		962.577835		306.429298		0.137299		0.000000		0.187233		-1.435034		21.613057		6.880366		93.551154		1044.175786		299.451005		-0.207749		0.000000		0.224383		3.979497		44.416466		12.737872		0.001786		-0.166126		-1.728507		0.413129		1.262814		1.873963		0.030395		-0.003023		0.029833		-1.449475		-2.242421		-2.583092		-0.353464		1.256065		1.901083		0.023733		-0.030252		0.051331		
0.811646		-65.740710		972.369387		293.751731		0.137869		0.000000		0.187649		-1.470825		21.754942		6.572147		99.904051		1036.131620		298.323445		-0.208678		0.000000		0.221758		4.371255		45.335032		13.052882		-0.089323		-0.170155		-1.679547		0.413140		1.262800		1.873894		0.031400		-0.000475		0.030420		-1.564555		-2.233207		-2.491000		-0.353472		1.256029		1.901024		0.023469		-0.033833		0.051429		
0.814475		-66.804211		983.309020		281.964509		0.138372		0.000000		0.188134		-1.495773		22.016691		6.313299		104.395151		1028.621346		295.463607		-0.209249		0.000000		0.219511		4.655554		45.871841		13.176333		-0.189057		-0.179484		-1.594623		0.413148		1.262786		1.873827		0.032448		0.002377		0.030896		-1.660971		-2.211120		-2.407221		-0.353487		1.255991		1.900968		0.023289		-0.037046		0.051245		
0.817303		-67.113348		994.342011		271.327530		0.138788		0.000000		0.188634		-1.509856		22.369823		6.104072		106.767690		1021.717600		291.065304		-0.209392		0.000000		0.217664		4.807096		46.001663		13.104876		-0.281974		-0.193680		-1.478126		0.413154		1.262771		1.873760		0.033537		0.005455		0.031244		-1.731398		-2.175369		-2.335905		-0.353505		1.255953		1.900913		0.023339		-0.039752		0.050843		
0.820131		-66.733948		1004.562185		261.982363		0.139104		0.000000		0.189101		-1.513346		22.780792		5.941047		107.085261		1015.233320		285.557823		-0.209114		0.000000		0.216187		4.826551		45.758640		12.870678		-0.352924		-0.211520		-1.339696		0.413155		1.262756		1.873695		0.034664		0.008607		0.031424		-1.771833		-2.126648		-2.278818		-0.353525		1.255917		1.900854		0.023737		-0.041909		0.050277		
0.822960		-65.756542		1013.231874		253.981522		0.139306		0.000000		0.189483		-1.506787		23.217846		5.819890		105.592869		1008.820053		279.464855		-0.208475		0.000000		0.215012		4.732141		45.210229		12.524210		-0.389732		-0.231255		-1.192051		0.413152		1.262742		1.873632		0.035822		0.011634		0.031380		-1.780750		-2.067161		-2.235745		-0.353543		1.255886		1.900791		0.024533		-0.043563		0.049564		
0.825788		-64.293999		1019.775320		247.281457		0.139386		0.000000		0.189735		-1.491268		23.653267		5.735574		102.648701		1002.048426		273.316660		-0.207563		0.000000		0.214053		4.552744		44.443419		12.122312		-0.385281		-0.250795		-1.049282		0.413145		1.262729		1.873570		0.036997		0.014332		0.031066		-1.758775		-2.000942		-2.205065		-0.353558		1.255862		1.900723		0.025691		-0.044840		0.048711		
0.828616		-62.475758		1023.831606		241.740909		0.139341		0.000000		0.189828		-1.468546		24.066107		5.682333		98.663277		994.511025		267.554566		-0.206477		0.000000		0.213218		4.320495		43.549815		11.716272		-0.339472		-0.268239		-0.923782		0.413135		1.262717		1.873512		0.038175		0.016525		0.030465		-1.708677		-1.933732		-2.184444		-0.353569		1.255843		1.900651		0.027083		-0.045909		0.047729		
0.831444		-60.426134		1025.192911		237.186253		0.139172		0.000000		0.189748		-1.440648		24.442159		5.654876		94.015525		985.881599		262.497791		-0.205305		0.000000		0.212423		4.063376		42.609997		11.345210		-0.257783		-0.282328		-0.824259		0.413124		1.262705		1.873456		0.039339		0.018095		0.029594		-1.634266		-1.872172		-2.171894		-0.353577		1.255830		1.900575		0.028531		-0.046922		0.046652		
0.834273		-58.264142		1023.819405		233.421439		0.138885		0.000000		0.189499		-1.409774		24.772702		5.647941		89.051059		975.965981		258.353896		-0.204129		0.000000		0.211596		3.804218		41.692641		11.036716		-0.150455		-0.292707		-0.754598		0.413113		1.262695		1.873403		0.040466		0.018999		0.028508		-1.540814		-1.823012		-2.165909		-0.353582		1.255823		1.900501		0.029839		-0.047983		0.045536		
0.837101		-56.096192		1019.860255		230.236514		0.138493		0.000000		0.189102		-1.378092		25.054550		5.656136		84.068006		964.745718		255.226836		-0.203010		0.000000		0.210689		3.559831		40.851767		10.807476		-0.030615		-0.300000		-0.713613		0.413105		1.262686		1.873355		0.041522		0.019283		0.027293		-1.435187		-1.791692		-2.165316		-0.353583		1.255821		1.900429		0.030832		-0.049122		0.044452		
0.839929		-54.010303		1013.578849		227.426902		0.138013		0.000000		0.188586		-1.347574		25.289148		5.674379		79.304824		952.346727		253.154347		-0.201996		0.000000		0.209669		3.341492		40.126910		10.666599		0.088213		-0.305601		-0.697106		0.413099		1.262676		1.873312		0.042457		0.019050		0.026058		-1.325394		-1.781640		-2.169126		-0.353583		1.255821		1.900364		0.031389		-0.050302		0.043461		
